<svg xmlns="http://www.w3.org/2000/svg" width="129" height="44" viewBox="0 0 129 44" fill="none"><path d="M19.4721 22.4909L19.4694 22.7138C19.4615 23.4028 19.3558 24.0995 19.1575 24.7835C18.7504 26.1819 17.9548 27.4561 16.7943 28.5657C15.6338 29.6778 14.3015 30.4429 12.8344 30.8406C12.126 31.0331 11.4043 31.1344 10.6853 31.1471C9.93194 31.1598 9.16535 31.0686 8.41726 30.8786C7.02417 30.5265 5.75796 29.8349 4.65036 28.8216L18.4306 15.6155L18.264 15.4559C16.871 14.1209 15.2611 13.2165 13.4847 12.7732C12.5648 12.5426 11.6211 12.4388 10.68 12.4616C9.82092 12.4844 8.95916 12.611 8.1159 12.8416C6.33423 13.3305 4.71116 14.2703 3.29164 15.6307C1.87212 16.9911 0.89669 18.5516 0.391795 20.2641C0.156529 21.0672 0.0243573 21.8905 0.00320981 22.7087C-0.0205811 23.6156 0.0878011 24.5276 0.330997 25.4143C0.793598 27.1167 1.72937 28.6518 3.10924 29.9742C4.48911 31.2966 6.09103 32.1934 7.86742 32.6367C8.70803 32.847 9.56979 32.9534 10.4342 32.9534C10.5188 32.9534 10.606 32.9534 10.6933 32.9508C11.5471 32.9306 12.4062 32.8039 13.2442 32.5784C15.0338 32.0946 16.6595 31.1598 18.079 29.7994C19.4985 28.439 20.4766 26.8836 20.9894 25.1762C21.23 24.3706 21.3648 23.5422 21.3886 22.7214L21.3939 22.4909H19.4721ZM15.7078 15.8359L3.4899 27.5448C2.87926 26.7316 2.43781 25.8424 2.17611 24.895C1.97785 24.178 1.88269 23.4484 1.89591 22.7239C1.90648 22.0374 2.01486 21.3433 2.21577 20.6644C2.63078 19.2584 3.4291 17.9816 4.58957 16.8695C5.75003 15.7599 7.07703 14.9974 8.53621 14.6047C9.24994 14.4147 9.97688 14.3134 10.6959 14.3058C10.7276 14.3058 10.7593 14.3058 10.7911 14.3058C11.5074 14.3058 12.2317 14.397 12.9428 14.5769C13.9288 14.8277 14.8593 15.2507 15.7078 15.8359Z" fill="black"></path><path d="M40.1174 12.8345V29.1818L26.7628 12.8345H25.1768V32.5992H27.1144V16.2544L40.4981 32.5992H42.0577V12.8345H40.1174Z" fill="black"></path><path d="M62.4997 28.7384C60.9216 30.2331 58.8941 30.9905 56.4753 30.9905C54.8338 30.9905 53.3244 30.6283 51.9841 29.9164C50.6466 29.2046 49.5813 28.2065 48.8199 26.9525C48.0586 25.696 47.6701 24.2723 47.6701 22.7219C47.6701 21.169 48.056 19.7453 48.8199 18.4888C49.5813 17.2348 50.6466 16.2367 51.9841 15.5248C53.3244 14.8104 54.8364 14.4507 56.4753 14.4507C58.9126 14.4507 60.9401 15.2006 62.4997 16.6749L62.6689 16.8345L63.9113 15.6059L63.758 15.4488C62.8751 14.5444 61.7886 13.8528 60.533 13.3918C59.2827 12.9333 57.8975 12.7002 56.4198 12.7002C54.4135 12.7002 52.5763 13.1359 50.9638 13.9972C49.3486 14.8611 48.0613 16.0669 47.1334 17.5844C46.2056 19.1018 45.7324 20.8295 45.7324 22.7194C45.7324 24.6092 46.2029 26.3369 47.1334 27.8543C48.0613 29.3718 49.3513 30.5801 50.9638 31.4415C52.5763 32.3028 54.4108 32.7385 56.4198 32.7385C57.8816 32.7385 59.2615 32.5004 60.5198 32.0343C61.786 31.5656 62.8751 30.8689 63.7606 29.9646L63.9139 29.8075L62.6715 28.5789L62.4997 28.7384Z" fill="black"></path><path d="M84.9919 17.5824C84.0614 16.065 82.7688 14.8591 81.1457 13.9953C79.5226 13.134 77.6828 12.6982 75.6764 12.6982C73.6674 12.6982 71.8276 13.139 70.2072 14.0105C68.5841 14.8819 67.2915 16.0928 66.361 17.6103C65.4331 19.1277 64.96 20.8478 64.96 22.7174C64.96 24.5895 65.4305 26.3071 66.361 27.8245C67.2888 29.342 68.5841 30.5529 70.2072 31.4243C71.8276 32.2958 73.6701 32.7366 75.6764 32.7366C77.6854 32.7366 79.5226 32.3008 81.1457 31.4395C82.7688 30.5782 84.0614 29.3698 84.9919 27.8524C85.9197 26.3324 86.3903 24.6047 86.3903 22.7174C86.3929 20.8301 85.9197 19.1024 84.9919 17.5824ZM84.4236 22.7174C84.4236 24.2703 84.0376 25.694 83.2737 26.948C82.5124 28.2045 81.455 29.2026 80.1386 29.9145C78.8168 30.6263 77.318 30.9886 75.6764 30.9886C74.0349 30.9886 72.5281 30.6263 71.1985 29.9145C69.8688 29.2026 68.8088 28.2045 68.0475 26.948C67.2862 25.6915 66.8976 24.2678 66.8976 22.7174C66.8976 21.1645 67.2835 19.7408 68.0475 18.4843C68.8088 17.2303 69.8688 16.2322 71.1985 15.5178C72.5281 14.8059 74.0349 14.4437 75.6764 14.4437C77.3154 14.4437 78.8168 14.8059 80.1386 15.5178C81.4576 16.2296 82.5124 17.2278 83.2737 18.4843C84.0376 19.7433 84.4236 21.167 84.4236 22.7174Z" fill="black"></path><path d="M101.307 25.737C102.716 25.2911 103.826 24.559 104.612 23.5558C105.455 22.4817 105.883 21.1416 105.883 19.571C105.883 17.4683 105.127 15.7989 103.639 14.6108C102.161 13.4328 100.107 12.835 97.5298 12.835H90.0674V32.5997H92.0077V26.2817H97.5298C98.0955 26.2817 98.7167 26.2411 99.3776 26.1601L104.173 32.5997H106.422L101.307 25.737ZM103.914 19.5735C103.914 21.1695 103.372 22.4159 102.299 23.2772C101.215 24.1486 99.6102 24.5894 97.5272 24.5894H92.005V14.5576H97.5272C99.6102 14.5576 101.215 14.9984 102.299 15.8698C103.372 16.7312 103.914 17.9775 103.914 19.5735Z" fill="black"></path><path d="M127.615 17.6224C126.695 16.1303 125.389 14.9472 123.737 14.1036C122.087 13.2626 120.176 12.8345 118.056 12.8345H109.846V32.5992H118.056C120.176 32.5992 122.087 32.1736 123.737 31.33C125.389 30.4864 126.695 29.3034 127.615 27.8113C128.535 26.3217 129 24.6067 129 22.7168C129 20.827 128.535 19.1145 127.615 17.6224ZM111.783 14.5571H117.94C119.753 14.5571 121.374 14.9067 122.754 15.5932C124.128 16.2797 125.199 17.2475 125.942 18.471C126.684 19.6997 127.062 21.1285 127.062 22.7168C127.062 24.3052 126.684 25.734 125.942 26.9626C125.201 28.1887 124.128 29.1565 122.754 29.8404C121.374 30.527 119.753 30.8766 117.94 30.8766H111.783V14.5571Z" fill="black"></path></svg>