<svg width="49" height="48" viewBox="0 0 49 48" fill="none" xmlns="http://www.w3.org/2000/svg">
<rect x="0.5" width="48" height="48" rx="6" fill="url(#paint0_linear_549_14742)"/>
<path d="M30.5153 11.0663L30.5153 11.0664C30.5017 11.1845 30.4511 11.3026 30.3828 11.3997C30.315 11.496 30.2231 11.5808 30.1188 11.6222L30.1188 11.6222C29.6246 11.8188 29.1187 12.06 28.6037 12.3474L28.6036 12.3474C28.0885 12.6347 27.5819 12.9585 27.0863 13.3143C27.0863 13.3143 27.0863 13.3143 27.0863 13.3143L27.028 13.2331C26.8662 13.3493 26.7166 13.3039 26.6939 13.1316C26.6713 12.9592 26.784 12.7253 26.9459 12.6092L30.5153 11.0663ZM30.5153 11.0663C30.5286 10.9499 30.5047 10.837 30.4283 10.7638M30.5153 11.0663L30.4283 10.7638M39.073 13.5866C38.6538 12.6583 38.0844 11.8963 37.3902 11.3169L37.3902 11.3168C37.2984 11.2403 37.181 11.2493 37.0857 11.2918C36.9895 11.3346 36.8977 11.4171 36.8265 11.5236C36.7551 11.6305 36.7123 11.7496 36.7033 11.8588C36.6946 11.9645 36.7171 12.0817 36.8046 12.1548C37.437 12.6825 37.9584 13.3788 38.3436 14.232L38.3436 14.232C38.3669 14.2834 38.4029 14.3254 38.4505 14.3527C38.4979 14.3798 38.5508 14.3889 38.6028 14.3846C38.7047 14.3762 38.8069 14.3172 38.8928 14.2287L38.8929 14.2287C38.9799 14.139 39.0436 14.0266 39.0772 13.9157C39.11 13.8074 39.1179 13.6862 39.073 13.5866ZM39.073 13.5866L38.9818 13.6278L39.073 13.5866C39.073 13.5866 39.073 13.5866 39.073 13.5866ZM17.8342 32.3509L17.8341 32.351C17.7392 32.4202 17.6293 32.4556 17.5279 32.4266C17.4198 32.3956 17.3558 32.3021 17.3396 32.188C17.3396 32.188 17.3396 32.188 17.3396 32.188L17.4386 32.1739L17.8342 32.3509ZM17.8342 32.3509C17.9305 32.2806 18.0086 32.1784 18.0595 32.0713C18.1099 31.965 18.1384 31.8434 18.1227 31.7326L18.0237 31.7467M17.8342 32.3509L18.0237 31.7467M18.0237 31.7467L18.1227 31.7326C18.0485 31.2114 18.0101 30.6565 18.0101 30.0693C18.0101 29.4821 18.0485 28.8833 18.1229 28.2773C18.1372 28.1608 18.1145 28.0476 18.0395 27.9733M18.0237 31.7467L18.0395 27.9733M39.6713 16.0865L39.7703 16.0724C39.8502 16.6345 39.8915 17.2312 39.8915 17.861C39.8915 18.4908 39.8502 19.1326 39.7705 19.7818L39.6713 19.7696L39.7705 19.7818C39.756 19.9001 39.7047 20.018 39.6358 20.1146C39.5674 20.2104 39.4751 20.2944 39.3706 20.3347M39.6713 16.0865L39.0861 19.9954C39.161 19.3855 39.1998 18.7827 39.1998 18.1911C39.1998 17.5995 39.161 17.04 39.0861 16.5137M39.6713 16.0865L39.7703 16.0724M39.6713 16.0865L39.7703 16.0724M39.3706 20.3347L39.3346 20.2414L39.3706 20.3347C39.3706 20.3347 39.3706 20.3347 39.3706 20.3347ZM39.3706 20.3347C39.2631 20.3762 39.1502 20.3663 39.0703 20.2872C38.9953 20.2129 38.9725 20.0997 38.9868 19.9832C39.0612 19.3771 39.0998 18.7783 39.0998 18.1911C39.0998 17.6039 39.0612 17.049 38.9871 16.5278L39.0861 16.5137M39.0861 16.5137L38.9871 16.5278C38.9713 16.417 38.9998 16.2954 39.0503 16.1892C39.1012 16.082 39.1793 15.9799 39.2756 15.9096L39.0861 16.5137ZM19.7837 36.8668L19.7196 36.9435C19.0255 36.3641 18.456 35.6021 18.0368 34.6739L18.0368 34.6739C17.9919 34.5743 17.9998 34.4531 18.0326 34.3447C18.0662 34.2338 18.1299 34.1214 18.217 34.0318M19.7837 36.8668L18.675 34.0697C19.0658 34.9351 19.596 35.6441 20.2411 36.1824C20.3448 36.269 20.3264 36.4923 20.2001 36.6812M19.7837 36.8668C19.8874 36.9533 20.0738 36.8702 20.2001 36.6812M19.7837 36.8668L19.7196 36.9436C19.8115 37.0202 19.9288 37.0111 20.0241 36.9687C20.1203 36.9258 20.212 36.8434 20.2832 36.7368M18.217 34.0318L18.2887 34.1014L18.217 34.0318C18.217 34.0318 18.217 34.0318 18.217 34.0318ZM18.217 34.0318C18.303 33.9433 18.4051 33.8843 18.5069 33.8759C18.559 33.8716 18.6119 33.8807 18.6593 33.9078C18.7069 33.935 18.7429 33.9771 18.7662 34.0285C19.1514 34.8816 19.6728 35.5779 20.3051 36.1057C20.3927 36.1787 20.4152 36.296 20.4065 36.4017C20.3975 36.5109 20.3547 36.63 20.2832 36.7368M20.2832 36.7368L20.2001 36.6812M20.2832 36.7368C20.2832 36.7368 20.2832 36.7368 20.2832 36.7368L20.2001 36.6812M30.4283 10.7638C30.3471 10.6862 30.2339 10.6783 30.127 10.7208L30.4283 10.7638ZM18.0395 27.9733C17.9596 27.8942 17.8466 27.8843 17.7392 27.9257M18.0395 27.9733L17.7392 27.9257M17.7392 27.9257C17.6347 27.966 17.5424 28.05 17.474 28.1458M17.7392 27.9257L17.474 28.1458M17.474 28.1458C17.4051 28.2424 17.3538 28.3603 17.3393 28.4787M17.474 28.1458L17.3393 28.4787M17.3393 28.4787L17.4386 28.4908L17.3393 28.4787ZM39.7703 16.0724C39.7541 15.9583 39.6901 15.8648 39.5819 15.8338M39.7703 16.0724L39.5819 15.8338M39.5819 15.8338C39.4805 15.8049 39.3705 15.8403 39.2757 15.9095L39.5819 15.8338ZM28.5062 11.4964C27.9565 11.803 27.416 12.1484 26.8876 12.5279L30.127 10.7208C29.597 10.9315 29.0559 11.1897 28.5062 11.4964ZM35.6159 10.8691L35.6159 10.8691C35.6718 10.7541 35.6963 10.634 35.6833 10.5302C35.6703 10.4264 35.6154 10.3231 35.5005 10.2869C34.6378 10.015 33.6782 9.93463 32.6482 10.0578C32.5397 10.0707 32.4386 10.1387 32.3607 10.2218C32.2812 10.3067 32.2155 10.418 32.1816 10.5377C32.1482 10.6558 32.1487 10.7734 32.1943 10.8649C32.2176 10.9118 32.2532 10.952 32.3012 10.9781C32.3494 11.0042 32.404 11.0128 32.46 11.0061L32.46 11.0061C33.412 10.8923 34.2933 10.9672 35.0812 11.2155L35.0813 11.2155C35.189 11.2494 35.301 11.2079 35.3881 11.146C35.4781 11.082 35.5597 10.9845 35.6159 10.8691ZM22.0805 18.4934L22.0805 18.4934C22.8804 17.3489 23.7723 16.2784 24.7323 15.322C24.8205 15.2341 24.8858 15.1225 24.9213 15.0118C24.956 14.9034 24.9662 14.782 24.9245 14.681C24.9029 14.6289 24.8687 14.5855 24.8223 14.5563C24.7761 14.5272 24.7236 14.5159 24.6713 14.5185C24.5692 14.5234 24.4662 14.5803 24.3793 14.6669L24.3792 14.6669C23.3571 15.6853 22.4082 16.8243 21.5574 18.0418L21.5573 18.0418C21.4838 18.147 21.4383 18.2657 21.4263 18.3754C21.4146 18.4815 21.4329 18.5996 21.5154 18.677C21.6031 18.7594 21.7202 18.7567 21.8172 18.7174C21.9142 18.6781 22.0073 18.5982 22.0805 18.4934ZM18.7708 25.2441L18.675 25.2154L18.7708 25.2441C19.1598 23.9488 19.6876 22.6539 20.3301 21.4007C20.3885 21.2867 20.4159 21.1665 20.4064 21.0617C20.397 20.9577 20.3475 20.851 20.2356 20.8085C20.1292 20.768 20.0159 20.8056 19.9277 20.8647C19.8367 20.9257 19.7534 21.0212 19.6947 21.1355C19.0107 22.4698 18.4477 23.8504 18.0322 25.234L18.0322 25.2341C17.9968 25.3521 17.9949 25.47 18.0374 25.563C18.0591 25.6105 18.093 25.6521 18.1398 25.6801C18.1869 25.7083 18.2411 25.7191 18.2974 25.7143C18.4062 25.7049 18.5082 25.6389 18.587 25.5574C18.6676 25.4741 18.7349 25.3638 18.7708 25.2441ZM37.4151 27.1249L37.4151 27.1249C38.0992 25.7907 38.6622 24.41 39.0776 23.0264C39.1131 22.9083 39.1149 22.7904 39.0724 22.6975C39.0507 22.65 39.0169 22.6083 38.9701 22.5803C38.923 22.5521 38.8687 22.5413 38.8125 22.5462L38.8125 22.5462C38.7036 22.5556 38.6016 22.6216 38.5228 22.703C38.4422 22.7863 38.3749 22.8967 38.339 23.0163C37.95 24.3116 37.4222 25.6066 36.7797 26.8597L36.8687 26.9054L36.7797 26.8597C36.7213 26.9737 36.6939 27.0939 36.7034 27.1987C36.7128 27.3027 36.7623 27.4094 36.8741 27.4519C36.9806 27.4924 37.0939 27.4548 37.1821 27.3958C37.2731 27.3347 37.3565 27.2393 37.4151 27.1249ZM22.0286 37.0449L22.0286 37.0449L21.5838 37.4352L21.4939 37.3914C21.4939 37.3914 21.4939 37.3914 21.4939 37.3914C21.4379 37.5063 21.4134 37.6264 21.4264 37.7302C21.4395 37.834 21.4944 37.9374 21.6092 37.9736L21.6093 37.9736C22.472 38.2454 23.4316 38.3258 24.4617 38.2027L24.4617 38.2027C24.5702 38.1897 24.6713 38.1217 24.7492 38.0386C24.8287 37.9537 24.8944 37.8424 24.9283 37.7227C24.9616 37.6046 24.9612 37.487 24.9155 37.3955C24.8922 37.3486 24.8566 37.3084 24.8086 37.2823C24.7604 37.2562 24.7058 37.2477 24.6498 37.2544C23.6978 37.3681 22.8166 37.2932 22.0286 37.0449ZM35.5944 29.5834L35.5944 29.5834C35.5067 29.5011 35.3896 29.5038 35.2926 29.543C35.1956 29.5823 35.1025 29.6622 35.0293 29.767C34.2295 30.9116 33.3375 31.982 32.3775 32.9385C32.2894 33.0264 32.224 33.138 32.1886 33.2486C32.1539 33.357 32.1437 33.4784 32.1854 33.5794C32.2069 33.6315 32.2412 33.6749 32.2875 33.7041C32.3338 33.7332 32.3863 33.7445 32.4385 33.742C32.5407 33.737 32.6436 33.6801 32.7306 33.5935L32.66 33.5226L32.7306 33.5935C33.7526 32.5751 34.7016 31.4361 35.5524 30.2187L35.5524 30.2186C35.626 30.1134 35.6714 29.9947 35.6835 29.885C35.6952 29.7789 35.6768 29.6608 35.5944 29.5834ZM26.991 36.6382L27.028 36.7311L26.991 36.6382C26.8868 36.6797 26.7949 36.7644 26.727 36.8608C26.6587 36.9578 26.6081 37.0759 26.5946 37.1941C26.5813 37.3105 26.6051 37.4234 26.6816 37.4966C26.7627 37.5743 26.8759 37.5823 26.9829 37.5397L26.9459 37.4468L26.9829 37.5397C27.5128 37.3289 28.054 37.0708 28.6037 36.764C29.1533 36.4574 29.6937 36.1121 30.2223 35.7326L30.2223 35.7326C30.319 35.6631 30.3976 35.5615 30.4492 35.4546C30.5003 35.3486 30.5297 35.2271 30.5151 35.1159L30.5151 35.1159C30.5 35.0018 30.4377 34.907 30.3302 34.8743C30.229 34.8435 30.1188 34.8777 30.0235 34.9461C29.5279 35.3019 29.0213 35.6257 28.5062 35.913C27.9911 36.2005 27.4852 36.4416 26.991 36.6382Z" fill="#389E0D" stroke="#389E0D" stroke-width="0.2"/>
<path d="M39.5856 17.2043C38.69 17.3793 37.8217 16.7967 37.6463 15.9032C37.471 15.0096 38.0549 14.1435 38.9506 13.9685C39.8463 13.7936 40.7146 14.3761 40.8899 15.2697C41.0653 16.1632 40.4813 17.0294 39.5856 17.2043Z" fill="white"/>
<path d="M29.3967 18.3549C29.3967 21.5092 28.2492 25.019 26.3848 28.1406C24.5205 31.2619 21.9449 33.9858 19.099 35.5735C16.2525 37.1617 13.7039 37.2979 11.8736 36.2759C10.0445 35.2545 8.89877 33.0572 8.89877 29.9029C8.89877 26.7485 10.0463 23.2387 11.9107 20.1172C13.775 16.9958 16.3506 14.272 19.1965 12.6842C22.043 11.0961 24.5916 10.9599 26.4219 11.9819C28.251 13.0033 29.3967 15.2006 29.3967 18.3549ZM19.1965 36.4245C22.2363 34.7285 24.9832 31.8218 26.9698 28.4965C28.9564 25.1713 30.1884 21.4184 30.1884 18.0247C30.1884 14.6309 28.9546 12.2208 26.9327 11.0927C24.912 9.96525 22.1382 10.1376 19.099 11.8332C16.0592 13.5293 13.3123 16.436 11.3257 19.7613C9.33907 23.0865 8.10703 26.8394 8.10703 30.2331C8.10703 33.6269 9.34086 36.037 11.3628 37.1651C13.3835 38.2925 16.1573 38.1202 19.1965 36.4245Z" fill="#389E0D" stroke="#389E0D" stroke-width="0.2"/>
<path d="M15.2293 14.9185C15.9708 15.4492 16.1408 16.4792 15.6088 17.2191C15.0769 17.9589 14.0444 18.1284 13.3027 17.5977C12.5611 17.067 12.3912 16.0371 12.9232 15.2972C13.4551 14.5574 14.4876 14.3878 15.2293 14.9185Z" fill="#389E0D"/>
<path d="M32.4539 33.1607C33.1955 33.6914 33.3654 34.7214 32.8334 35.4612C32.3015 36.2011 31.269 36.3706 30.5273 35.8399C29.7857 35.3092 29.6158 34.2792 30.1478 33.5394C30.6797 32.7995 31.7123 32.63 32.4539 33.1607Z" fill="#389E0D"/>
<path d="M40.8023 15.5267C40.8023 16.288 40.1838 16.905 39.4207 16.905C38.6577 16.905 38.0391 16.288 38.0391 15.5267C38.0391 14.7656 38.6577 14.1484 39.4207 14.1484C40.1838 14.1484 40.8023 14.7656 40.8023 15.5267Z" fill="white" stroke="#389E0D"/>
<path d="M9.99955 31.6595C9.99955 32.4208 9.38102 33.0378 8.61794 33.0378C7.85494 33.0378 7.23633 32.4208 7.23633 31.6595C7.23633 30.8984 7.85494 30.2812 8.61794 30.2812C9.38102 30.2812 9.99955 30.8984 9.99955 31.6595Z" fill="white" stroke="#389E0D"/>
<defs>
<linearGradient id="paint0_linear_549_14742" x1="24.5" y1="-3.8817e-07" x2="37.4926" y2="47.9488" gradientUnits="userSpaceOnUse">
<stop stop-color="#F6FFED"/>
<stop offset="1" stop-color="#E7FFCF"/>
</linearGradient>
</defs>
</svg>
