<svg width="48" height="48" viewBox="0 0 48 48" fill="none" xmlns="http://www.w3.org/2000/svg">
<rect width="48" height="48" rx="8" fill="url(#paint0_linear_1689_9462)"/>
<rect x="9.6" y="10.6" width="11.8" height="11.8" stroke="#FF80A6" stroke-width="1.2"/>
<path d="M30.7273 10H26V14.7273H26.4182C26.9705 14.7273 27.4182 14.2796 27.4182 13.7273V11.4182H29.7273C30.2796 11.4182 30.7273 10.9705 30.7273 10.4182V10Z" fill="#FF80A6"/>
<path d="M35.2727 11.4182C34.7204 11.4182 34.2727 10.9705 34.2727 10.4182V10H39V14.7273H38.5818C38.0295 14.7273 37.5818 14.2796 37.5818 13.7273V11.4182H35.2727Z" fill="#FF80A6"/>
<path d="M34.2727 22.5818C34.2727 22.0295 34.7204 21.5818 35.2727 21.5818H37.5818V19.2727C37.5818 18.7204 38.0295 18.2727 38.5818 18.2727H39V23H34.2727V22.5818Z" fill="#FF80A6"/>
<path d="M26.4182 18.2727C26.9705 18.2727 27.4182 18.7204 27.4182 19.2727V21.5818H29.7273C30.2796 21.5818 30.7273 22.0295 30.7273 22.5818V23H26V18.2727H26.4182Z" fill="#FF80A6"/>
<path d="M13.7273 26H9V30.7273H9.41818C9.97047 30.7273 10.4182 30.2796 10.4182 29.7273V27.4182H12.7273C13.2796 27.4182 13.7273 26.9705 13.7273 26.4182V26Z" fill="#FF80A6"/>
<path d="M18.2727 27.4182C17.7204 27.4182 17.2727 26.9705 17.2727 26.4182V26H22V30.7273H21.5818C21.0295 30.7273 20.5818 30.2796 20.5818 29.7273V27.4182H18.2727Z" fill="#FF80A6"/>
<path d="M17.2727 38.5818C17.2727 38.0295 17.7204 37.5818 18.2727 37.5818H20.5818V35.2727C20.5818 34.7204 21.0295 34.2727 21.5818 34.2727H22V39H17.2727V38.5818Z" fill="#FF80A6"/>
<path d="M9.41818 34.2727C9.97047 34.2727 10.4182 34.7204 10.4182 35.2727V37.5818H12.7273C13.2796 37.5818 13.7273 38.0295 13.7273 38.5818V39H9V34.2727H9.41818Z" fill="#FF80A6"/>
<rect x="26.6" y="26.6" width="11.8" height="11.8" stroke="#FF80A6" stroke-width="1.2"/>
<defs>
<linearGradient id="paint0_linear_1689_9462" x1="10.4957" y1="0.300854" x2="54.2735" y2="108.292" gradientUnits="userSpaceOnUse">
<stop stop-color="#FFFBFC"/>
<stop offset="1" stop-color="#FFB0C8"/>
</linearGradient>
</defs>
</svg>
