<svg width="65" height="64" viewBox="0 0 65 64" fill="none" xmlns="http://www.w3.org/2000/svg">
<path d="M58.8135 0.515137H6.19064C3.05642 0.515137 0.515625 3.04982 0.515625 6.17652V57.6436C0.515625 60.7703 3.05642 63.305 6.19064 63.305H58.8135C61.9477 63.305 64.4885 60.7703 64.4885 57.6436V6.17652C64.4885 3.04982 61.9477 0.515137 58.8135 0.515137Z" fill="url(#paint0_linear_3829_6872)"/>
<path d="M16.6602 20.4448H16.8149H34.0039V21.4369H17.6546V48.689H44.9724V32.9097H45.9669L45.9669 49.5267V49.6811H45.8121H16.8149H16.6602V49.5267V20.5992V20.4448Z" fill="#5658DD" stroke="#5658DD" stroke-width="0.197583" stroke-linecap="round"/>
<path d="M43.8962 12.3359C43.104 12.3464 42.3324 12.4428 41.5907 12.6165C41.3231 12.6791 41.1571 12.9462 41.22 13.2131C41.2827 13.48 41.5505 13.6455 41.818 13.5829C42.4899 13.4257 43.1897 13.3381 43.9094 13.3285C44.6291 13.319 45.3308 13.3882 46.0068 13.5277C46.2759 13.5833 46.5391 13.4106 46.5948 13.1422C46.6505 12.8737 46.4775 12.6111 46.2084 12.5556C45.4623 12.4016 44.6885 12.3255 43.8962 12.3359ZM38.7334 14.9065C38.963 14.756 39.0268 14.4482 38.8759 14.2191C38.725 13.9901 38.4165 13.9263 38.1869 14.0769C36.8866 14.9293 35.7855 16.0573 34.9657 17.3765C34.8209 17.6094 34.8928 17.9155 35.1264 18.0599C35.3599 18.2043 35.6666 18.1325 35.8115 17.8995C36.555 16.703 37.554 15.6796 38.7334 14.9065ZM49.6497 13.9257C49.4161 13.7813 49.1095 13.853 48.9647 14.0861C48.8198 14.319 48.8919 14.6251 49.1254 14.7695C50.3248 15.5112 51.3506 16.5078 52.1256 17.6844C52.2765 17.9135 52.5851 17.9771 52.8146 17.8266C53.0443 17.676 53.1081 17.3684 52.9572 17.1392C52.1027 15.842 50.9721 14.7435 49.6497 13.9257ZM34.5667 21.0107C34.6223 20.7422 34.4494 20.4795 34.1803 20.4241C33.9112 20.3685 33.6479 20.5411 33.5922 20.8094C33.4379 21.5538 33.3616 22.3258 33.372 23.1161C33.3826 23.9065 33.4792 24.6762 33.6533 25.4162C33.716 25.683 33.9838 25.8486 34.2514 25.786C34.5188 25.7233 34.6848 25.4562 34.622 25.1894C34.4643 24.519 34.3765 23.821 34.367 23.103C34.3575 22.3851 34.4268 21.6849 34.5667 21.0107ZM54.4212 20.5348C54.3583 20.2679 54.0906 20.1024 53.8231 20.165C53.5556 20.2276 53.3896 20.4947 53.4524 20.7616C53.6101 21.432 53.6979 22.13 53.7074 22.848C53.7169 23.5659 53.6476 24.2661 53.5077 24.9403C53.4521 25.2088 53.625 25.4714 53.8941 25.5269C54.1632 25.5825 54.4264 25.4099 54.4822 25.1414C54.6365 24.3972 54.7129 23.6252 54.7024 22.8349C54.6918 22.0444 54.5951 21.2748 54.4212 20.5348ZM35.9488 28.2666C35.7978 28.0375 35.4894 27.9738 35.2597 28.1244C35.0302 28.2749 34.9663 28.5826 35.1173 28.8118C35.9717 30.1088 37.1024 31.2073 38.4248 32.0252C38.6583 32.1697 38.9649 32.0978 39.1098 31.8649C39.2545 31.6318 39.1825 31.3259 38.949 31.1815C37.7496 30.4398 36.7238 29.4431 35.9488 28.2666ZM53.1087 28.5745C53.2535 28.3414 53.1816 28.0355 52.948 27.8911C52.7144 27.7467 52.4078 27.8184 52.263 28.0514C51.5194 29.248 50.5204 30.2713 49.341 31.0445C49.1114 31.195 49.0476 31.5028 49.1985 31.7318C49.3494 31.9609 49.6579 32.0245 49.8875 31.874C51.1878 31.0217 52.2889 29.8937 53.1087 28.5745ZM42.0676 32.4233C41.7985 32.3677 41.5353 32.5403 41.4796 32.8087C41.424 33.0771 41.5969 33.3398 41.866 33.3953C42.6121 33.5494 43.3859 33.6255 44.1782 33.615C44.9704 33.6046 45.742 33.5081 46.4838 33.3345C46.7512 33.2718 46.9173 33.0047 46.8544 32.7379C46.7917 32.471 46.5239 32.3054 46.2564 32.368C45.5845 32.5253 44.8847 32.6129 44.165 32.6224C43.4454 32.632 42.7435 32.5628 42.0676 32.4233Z" fill="#5658DD"/>
<path d="M46.2084 12.5556C46.4775 12.6111 46.6505 12.8737 46.5948 13.1422C46.5391 13.4106 46.2759 13.5833 46.0068 13.5277C45.3308 13.3882 44.6291 13.319 43.9094 13.3285C43.1897 13.3381 42.4899 13.4257 41.818 13.5829C41.5505 13.6455 41.2827 13.48 41.22 13.2131C41.1571 12.9462 41.3231 12.6791 41.5907 12.6165C42.3324 12.4428 43.104 12.3464 43.8962 12.3359C44.6885 12.3255 45.4623 12.4016 46.2084 12.5556ZM46.2084 12.5556L46.177 12.7068M38.7334 14.9065C38.963 14.756 39.0268 14.4482 38.8759 14.2191C38.725 13.9901 38.4165 13.9263 38.1869 14.0769C36.8866 14.9293 35.7855 16.0573 34.9657 17.3765C34.8209 17.6094 34.8928 17.9155 35.1264 18.0599C35.3599 18.2043 35.6666 18.1325 35.8115 17.8995C36.555 16.703 37.554 15.6796 38.7334 14.9065ZM49.6497 13.9257C49.4161 13.7813 49.1095 13.853 48.9647 14.0861C48.8198 14.319 48.8919 14.6251 49.1254 14.7695C50.3248 15.5112 51.3506 16.5078 52.1256 17.6844C52.2765 17.9135 52.5851 17.9771 52.8146 17.8266C53.0443 17.676 53.1081 17.3684 52.9572 17.1392C52.1027 15.842 50.9721 14.7435 49.6497 13.9257ZM34.5667 21.0107C34.6223 20.7422 34.4494 20.4795 34.1803 20.4241C33.9112 20.3685 33.6479 20.5411 33.5922 20.8094C33.4379 21.5538 33.3616 22.3258 33.372 23.1161C33.3826 23.9065 33.4792 24.6762 33.6533 25.4162C33.716 25.683 33.9838 25.8486 34.2514 25.786C34.5188 25.7233 34.6848 25.4562 34.622 25.1894C34.4643 24.519 34.3765 23.821 34.367 23.103C34.3575 22.3851 34.4268 21.6849 34.5667 21.0107ZM54.4212 20.5348C54.3583 20.2679 54.0906 20.1024 53.8231 20.165C53.5556 20.2276 53.3896 20.4947 53.4524 20.7616C53.6101 21.432 53.6979 22.13 53.7074 22.848C53.7169 23.5659 53.6476 24.2661 53.5077 24.9403C53.4521 25.2088 53.625 25.4714 53.8941 25.5269C54.1632 25.5825 54.4264 25.4099 54.4822 25.1414C54.6365 24.3972 54.7129 23.6252 54.7024 22.8349C54.6918 22.0444 54.5951 21.2748 54.4212 20.5348ZM35.9488 28.2666C35.7978 28.0375 35.4894 27.9738 35.2597 28.1244C35.0302 28.2749 34.9663 28.5826 35.1173 28.8118C35.9717 30.1088 37.1024 31.2073 38.4248 32.0252C38.6583 32.1697 38.9649 32.0978 39.1098 31.8649C39.2545 31.6318 39.1825 31.3259 38.949 31.1815C37.7496 30.4398 36.7238 29.4431 35.9488 28.2666ZM53.1087 28.5745C53.2535 28.3415 53.1816 28.0355 52.948 27.8911C52.7144 27.7467 52.4078 27.8184 52.263 28.0514C51.5194 29.248 50.5204 30.2713 49.341 31.0445C49.1114 31.195 49.0476 31.5028 49.1985 31.7318C49.3494 31.9609 49.6579 32.0245 49.8875 31.874C51.1878 31.0217 52.2889 29.8937 53.1087 28.5745ZM42.0676 32.4233C41.7985 32.3677 41.5353 32.5403 41.4796 32.8087C41.424 33.0771 41.5969 33.3398 41.866 33.3953C42.6121 33.5494 43.3859 33.6255 44.1782 33.615C44.9704 33.6046 45.742 33.5081 46.4838 33.3345C46.7512 33.2718 46.9173 33.0047 46.8544 32.7379C46.7917 32.471 46.5239 32.3054 46.2564 32.368C45.5845 32.5253 44.8847 32.6129 44.165 32.6224C43.4454 32.632 42.7435 32.5628 42.0676 32.4233Z" stroke="#5658DD" stroke-width="0.0592748"/>
<path d="M18.6633 20.5997C18.6633 21.6196 17.8346 22.4465 16.8121 22.4465C15.7898 22.4465 14.9609 21.6196 14.9609 20.5997C14.9609 19.5798 15.7898 18.7529 16.8121 18.7529C17.8346 18.7529 18.6633 19.5798 18.6633 20.5997Z" fill="#F4F4FF" stroke="#5658DD" stroke-width="0.987913"/>
<path d="M47.5539 48.6817C47.5539 49.7017 46.7252 50.5284 45.7028 50.5284C44.6804 50.5284 43.8516 49.7017 43.8516 48.6817C43.8516 47.6618 44.6804 46.835 45.7028 46.835C46.7252 46.835 47.5539 47.6618 47.5539 48.6817Z" fill="#E7E7FF" stroke="#5658DD" stroke-width="0.987913"/>
<path d="M18.6633 48.6817C18.6633 49.7017 17.8346 50.5284 16.8121 50.5284C15.7898 50.5284 14.9609 49.7017 14.9609 48.6817C14.9609 47.6618 15.7898 46.835 16.8121 46.835C17.8346 46.835 18.6633 47.6618 18.6633 48.6817Z" fill="#E8E8FF" stroke="#5658DD" stroke-width="0.987913"/>
<defs>
<linearGradient id="paint0_linear_3829_6872" x1="14.5039" y1="0.90869" x2="71.0039" y2="142.909" gradientUnits="userSpaceOnUse">
<stop stop-color="#F8F8FF"/>
<stop offset="1" stop-color="#CDCEFF"/>
</linearGradient>
</defs>
</svg>
