<svg width="50" height="27" viewBox="0 0 50 27" fill="none" xmlns="http://www.w3.org/2000/svg">
<g opacity="0.7" clip-path="url(#clip0_769_6227)">
<mask id="mask0_769_6227" style="mask-type:luminance" maskUnits="userSpaceOnUse" x="1" y="1" width="49" height="25">
<path d="M49.2499 1.14258H1.4668V25.5425H49.2499V1.14258Z" fill="white"/>
</mask>
<g mask="url(#mask0_769_6227)">
<path fill-rule="evenodd" clip-rule="evenodd" d="M28.7394 25.3845H27.4878V19.1427H28.7394V25.3845ZM28.9525 16.8908C28.9525 17.1191 28.8704 17.3079 28.7062 17.4571C28.542 17.6063 28.3445 17.6809 28.1137 17.6809C27.8828 17.6809 27.6875 17.6041 27.5277 17.4505C27.3679 17.2968 27.2881 17.1103 27.2881 16.8908C27.2881 16.6626 27.3679 16.4716 27.5277 16.3179C27.6875 16.1643 27.8828 16.0875 28.1137 16.0875C28.3445 16.0875 28.542 16.1643 28.7062 16.3179C28.8704 16.4716 28.9525 16.6626 28.9525 16.8908ZM35.424 20.1566L31.8287 24.3441H35.5704V25.3845H30.2841V24.3705L33.8527 20.1566H30.4571V19.1427H35.424V20.1566ZM38.6196 24.5944C38.6196 24.8226 38.5353 25.0245 38.3666 25.2002C38.198 25.3757 37.9849 25.4635 37.7275 25.4635C37.479 25.4635 37.2681 25.3779 37.095 25.2067C36.9219 25.0355 36.8354 24.8358 36.8354 24.6076C36.8354 24.3705 36.9197 24.1664 37.0884 23.9952C37.257 23.824 37.4701 23.7384 37.7275 23.7384C37.9849 23.7384 38.198 23.8218 38.3666 23.9887C38.5353 24.1555 38.6196 24.3574 38.6196 24.5944ZM44.4652 21.3418C44.4652 20.8764 44.3232 20.5319 44.0392 20.308C43.7551 20.0842 43.3778 19.9722 42.9073 19.9722C42.5522 19.9722 42.2171 20.0403 41.9019 20.1763C41.5868 20.3124 41.3227 20.4858 41.1097 20.6965L40.444 19.9064C40.7546 19.6166 41.1342 19.3884 41.5824 19.2217C42.0307 19.0549 42.5123 18.9715 43.0271 18.9715C43.4799 18.9715 43.8727 19.0351 44.2056 19.1623C44.5385 19.2897 44.8115 19.463 45.0245 19.6825C45.2375 19.902 45.3973 20.161 45.5039 20.4594C45.6104 20.758 45.6637 21.0783 45.6637 21.4208V24.1466C45.6637 24.3574 45.6703 24.579 45.6837 24.8117C45.6969 25.0443 45.7214 25.2352 45.7568 25.3845H44.625C44.5541 25.086 44.5185 24.7875 44.5185 24.489H44.4786C44.2478 24.8226 43.957 25.0817 43.6064 25.266C43.2558 25.4504 42.8408 25.5425 42.3614 25.5425C42.1128 25.5425 41.8532 25.5096 41.5824 25.4437C41.3117 25.3779 41.0653 25.2703 40.8434 25.1211C40.6215 24.9719 40.4372 24.7744 40.2908 24.5285C40.1444 24.2827 40.0711 23.9798 40.0711 23.6199C40.0711 23.1459 40.1998 22.7705 40.4572 22.494C40.7146 22.2175 41.052 22.0067 41.4693 21.8619C41.8865 21.7171 42.3569 21.6227 42.8807 21.5788C43.4044 21.5349 43.9326 21.513 44.4652 21.513V21.3418ZM44.159 22.4084C43.8483 22.4084 43.5265 22.4216 43.1936 22.4479C42.8607 22.4743 42.5589 22.5269 42.2882 22.606C42.0174 22.6849 41.7933 22.8035 41.6157 22.9615C41.4382 23.1195 41.3493 23.3302 41.3493 23.5936C41.3493 23.7779 41.3871 23.9316 41.4626 24.0545C41.538 24.1773 41.6379 24.2783 41.7621 24.3574C41.8865 24.4364 42.0241 24.4913 42.1749 24.522C42.3259 24.5527 42.4813 24.568 42.641 24.568C43.227 24.568 43.6774 24.3946 43.9925 24.0479C44.3077 23.7012 44.4652 23.2644 44.4652 22.7376V22.4084H44.159ZM49.0193 25.3845H47.7675V19.1427H49.0193V25.3845ZM49.2322 16.8908C49.2322 17.1191 49.1501 17.3079 48.9859 17.4571C48.8216 17.6063 48.6241 17.6809 48.3934 17.6809C48.1626 17.6809 47.9672 17.6041 47.8075 17.4505C47.6477 17.2968 47.5678 17.1103 47.5678 16.8908C47.5678 16.6626 47.6477 16.4716 47.8075 16.3179C47.9672 16.1643 48.1626 16.0875 48.3934 16.0875C48.6241 16.0875 48.8216 16.1643 48.9859 16.3179C49.1501 16.4716 49.2322 16.6626 49.2322 16.8908ZM31.6359 1.14258C31.6921 1.15932 31.7484 1.17503 31.804 1.19328C31.8765 1.21665 31.9394 1.25646 31.9921 1.31038C32.1115 1.43287 32.1366 1.57164 32.0649 1.72516C31.9834 1.89968 31.9002 2.07342 31.8169 2.24728C31.5221 2.86448 31.225 3.48073 30.9324 4.09887C30.7969 4.38519 30.5908 4.60946 30.3378 4.79949C29.8819 5.14209 29.3832 5.41224 28.8636 5.64767C28.3026 5.90174 27.7242 6.11077 27.1356 6.29267C26.3883 6.52366 25.629 6.70991 24.862 6.86768C24.0634 7.03179 23.2591 7.16195 22.4505 7.26761C22.0241 7.32332 21.5965 7.3708 21.1678 7.41138C20.8433 7.44212 20.519 7.47352 20.1937 7.4949C19.8487 7.51741 19.5955 7.23998 19.5856 6.97986C19.5814 6.86873 19.6006 6.7644 19.6449 6.66224C19.895 6.08486 20.1433 5.50683 20.3925 4.92926C20.6722 4.28077 20.9522 3.63264 21.2319 2.98414C21.42 2.54798 21.6078 2.11173 21.7968 1.67577C21.9013 1.43448 22.1017 1.30082 22.3421 1.21182C22.4346 1.17776 22.5339 1.17521 22.6264 1.14258H31.6359ZM10.9135 1.14258C10.9429 1.15913 10.9764 1.15761 11.0084 1.16263C11.2461 1.2016 11.458 1.29099 11.6284 1.46446C11.7046 1.54184 11.7575 1.63246 11.7997 1.73045C12.1793 2.61202 12.5583 3.4935 12.9381 4.37489C13.2684 5.14124 13.5994 5.90742 13.93 6.67378C13.962 6.74737 13.9867 6.82247 13.9921 6.90438C14.0169 7.2764 13.6625 7.54238 13.3341 7.49339C13.1605 7.46746 12.9836 7.4633 12.8083 7.44741C12.5161 7.42083 12.2237 7.39653 11.9322 7.36409C11.5855 7.32559 11.2396 7.28141 10.8938 7.23639C10.3796 7.16923 9.86806 7.08552 9.35812 6.99311C8.75482 6.88338 8.15529 6.75701 7.56087 6.60738C6.79856 6.41527 6.04627 6.19156 5.3152 5.90419C4.6962 5.6611 4.09541 5.38168 3.53879 5.01761C3.36771 4.90543 3.20648 4.78047 3.04659 4.65392C2.85806 4.50447 2.74282 4.30649 2.64445 4.09452C2.51754 3.82059 2.38572 3.54912 2.25447 3.27708C2.00634 2.76232 1.75678 2.24795 1.50836 1.73291C1.41925 1.5477 1.47634 1.36061 1.65157 1.24767C1.73517 1.19366 1.83055 1.17228 1.92312 1.14258H10.9135ZM13.4617 25.5399C13.4029 25.51 13.3362 25.5065 13.2746 25.486C12.9882 25.3905 12.7933 25.2053 12.6722 24.9316C12.5368 24.6255 12.3863 24.3255 12.2409 24.0233C11.9823 23.486 11.7223 22.9492 11.4637 22.412C11.3113 22.0955 11.1604 21.7781 11.0092 21.4612C10.9814 21.4032 10.9495 21.3464 10.9643 21.2776C10.9993 21.1159 11.1479 21.0411 11.3013 21.1099C11.3401 21.1271 11.3777 21.1466 11.4153 21.1661C12.2222 21.5865 13.0729 21.8908 13.9601 22.099C14.4083 22.2041 14.8605 22.2862 15.3178 22.3402C15.6222 22.3761 15.9273 22.4006 16.2334 22.4193C16.671 22.4462 17.1083 22.4384 17.5452 22.4292C17.8346 22.423 18.1237 22.3935 18.4125 22.3628C19.0337 22.2967 19.6456 22.1843 20.2494 22.0268C20.8026 21.8827 21.3425 21.7004 21.8657 21.4707C22.0026 21.4106 22.1388 21.3479 22.2747 21.2855C22.3744 21.2397 22.4685 21.2485 22.5456 21.325C22.6233 21.4021 22.6282 21.4972 22.584 21.5936C22.529 21.7136 22.4715 21.8327 22.4143 21.9519C22.2404 22.3153 22.0653 22.678 21.8918 23.0417C21.6689 23.5104 21.4471 23.9794 21.2247 24.4482C21.1266 24.6548 21.0335 24.8643 20.9274 25.0671C20.8067 25.2981 20.5994 25.4261 20.3521 25.4984C20.3021 25.5129 20.2486 25.514 20.2017 25.5399H13.4617ZM16.7312 13.9389C16.3928 13.9165 16.0531 13.9288 15.7146 13.9165C15.3696 13.9041 15.0246 13.8856 14.6805 13.8595C13.9688 13.8052 13.2598 13.7284 12.5545 13.618C11.9037 13.5161 11.2581 13.3891 10.6194 13.2293C9.93903 13.0589 9.27069 12.852 8.62034 12.5911C7.99988 12.3421 7.40214 12.0494 6.84883 11.6744C6.51094 11.4456 6.20253 11.1856 5.95761 10.859C5.81782 10.6731 5.69835 10.4749 5.60075 10.2633C5.46867 9.97702 5.32771 9.69475 5.19089 9.41084C5.01506 9.04553 4.83894 8.68038 4.66398 8.31469C4.60858 8.19876 4.62448 8.10198 4.70656 8.02273C4.78267 7.94975 4.86967 7.93173 4.96641 7.97809C5.06593 8.02568 5.16209 8.08084 5.26036 8.13117C5.92708 8.47214 6.61884 8.75527 7.32834 8.99832C8.25992 9.31748 9.21095 9.56497 10.1761 9.76337C10.8404 9.89967 11.5087 10.0111 12.1806 10.1007C12.5681 10.1524 12.9567 10.1958 13.3455 10.2361C13.6111 10.2635 13.8778 10.2799 14.1441 10.2998C14.394 10.3185 14.6445 10.3333 14.8946 10.3534C15.3117 10.3875 15.6058 10.6024 15.7926 10.9629C16.0503 11.4606 16.3022 11.9607 16.5569 12.4597C16.5744 12.494 16.5912 12.5294 16.614 12.5603C16.7084 12.6872 16.8727 12.6817 16.9529 12.5458C17.0085 12.4516 17.0563 12.3529 17.103 12.2539C17.2642 11.9133 17.4411 11.5807 17.6075 11.243C17.6715 11.1131 17.7264 10.9787 17.8044 10.8559C17.9958 10.5565 18.269 10.3841 18.6284 10.3548C18.9174 10.3312 19.207 10.3186 19.4961 10.2961C19.7492 10.2761 20.0017 10.2478 20.2548 10.2256C20.5438 10.2002 20.8313 10.1637 21.1191 10.1291C21.5398 10.0784 21.9583 10.014 22.3762 9.94499C23.1325 9.81995 23.8811 9.66033 24.623 9.46951C25.593 9.21983 26.5424 8.91006 27.4606 8.51204C27.8157 8.35811 28.163 8.1872 28.5032 8.00283C28.5318 7.98747 28.5603 7.97221 28.59 7.95855C28.6951 7.9104 28.7831 7.92227 28.8609 7.9942C28.9426 8.07042 28.9629 8.14814 28.9172 8.25611C28.8696 8.36863 28.8147 8.47821 28.7621 8.58854C28.5628 9.00694 28.3692 9.428 28.1615 9.84195C28.0519 10.0601 27.9569 10.2859 27.8259 10.4933C27.6441 10.7817 27.4193 11.0334 27.1611 11.2584C26.5637 11.7796 25.8752 12.1528 25.1491 12.4665C24.1925 12.88 23.195 13.1644 22.1769 13.3855C21.5684 13.5176 20.9547 13.6203 20.3376 13.7026C20.0213 13.7448 19.7039 13.7796 19.3857 13.8078C19.0288 13.8397 18.6719 13.8663 18.314 13.8862C17.9625 13.9058 17.6109 13.9245 17.2591 13.9215C17.0827 13.9203 16.9078 13.9493 16.7312 13.9389ZM16.9077 19.5963C16.624 19.6069 16.3409 19.5849 16.0581 19.5729C15.5968 19.5529 15.1366 19.5101 14.678 19.4503C14.0897 19.3738 13.507 19.2686 12.9324 19.1247C12.0804 18.9112 11.2558 18.6258 10.4783 18.2208C10.1245 18.0367 9.78065 17.8357 9.47119 17.5846C9.1599 17.3321 8.906 17.0315 8.70832 16.6879C8.52962 16.3776 8.38923 16.0484 8.23104 15.7284C8.14745 15.5596 8.06591 15.3899 7.98368 15.2205C7.9336 15.1171 7.88402 15.0137 7.83395 14.9102C7.77743 14.7936 7.78378 14.7101 7.85436 14.6485C7.92745 14.5848 8.01988 14.5861 8.13408 14.6521C8.37239 14.7896 8.61397 14.9219 8.86257 15.0407C9.56315 15.3762 10.2893 15.6475 11.0364 15.8678C11.6828 16.0582 12.3393 16.2073 13.0032 16.3259C13.3813 16.3935 13.7617 16.4469 14.1432 16.4922C14.4437 16.5277 14.7449 16.5567 15.0465 16.5796C15.2053 16.5917 15.3653 16.5978 15.5242 16.6078C16.0543 16.6412 16.5851 16.6497 17.1158 16.6385C17.3662 16.6331 17.6167 16.6273 17.8669 16.6094C18.0094 16.5993 18.1528 16.5937 18.2957 16.5844C18.4711 16.5727 18.6463 16.5602 18.821 16.5417C19.0669 16.5159 19.3128 16.4883 19.5578 16.4565C19.9779 16.4017 20.395 16.3327 20.8105 16.2515C21.5816 16.101 22.3391 15.9011 23.0809 15.646C23.854 15.38 24.5972 15.0501 25.303 14.6417C25.3646 14.606 25.4241 14.5664 25.4875 14.5343C25.5774 14.4892 25.6602 14.5012 25.7216 14.5612C25.7808 14.6189 25.7934 14.6937 25.7534 14.7812C25.6871 14.9262 25.6192 15.0706 25.5497 15.214C25.3152 15.6996 25.0794 16.1844 24.8446 16.6699C24.7586 16.8477 24.6822 17.0302 24.5818 17.2016C24.3996 17.5116 24.1476 17.7528 23.8365 17.9406C23.0296 18.4283 22.1599 18.7713 21.251 19.0276C20.7212 19.1771 20.1836 19.2913 19.6399 19.3794C19.3218 19.4309 19.0026 19.4736 18.6815 19.5035C18.4191 19.528 18.1566 19.549 17.8931 19.5628C17.5648 19.5801 17.2364 19.5925 16.9077 19.5963Z" fill="white"/>
</g>
</g>
<defs>
<clipPath id="clip0_769_6227">
<rect width="48.8508" height="25.5885" fill="white" transform="translate(0.754395 0.650391)"/>
</clipPath>
</defs>
</svg>
